# Blender v2.79 (sub 0) OBJ File: 'turretBoss.blend'
# www.blender.org
o Circle.002_Circle.004
v -0.382684 0.000000 0.923879
v 0.382683 0.000000 0.923880
v -0.382684 0.100000 0.923879
v 0.382683 0.100000 0.923880
v -0.382684 0.664022 0.923879
v 0.382683 0.664022 0.923880
v -0.382684 0.892573 0.923879
v 0.382683 0.892573 0.923880
v -0.356992 0.100000 0.861855
v 0.356992 0.100000 0.861855
v -0.356992 0.664022 0.861855
v 0.356992 0.664022 0.861855
v -0.293771 0.149943 0.861855
v 0.293770 0.149943 0.861855
v -0.293771 0.614079 0.861855
v 0.293770 0.614079 0.861855
v -0.106252 0.444940 0.621320
v 0.106252 0.444940 0.621320
v -0.106252 0.612810 0.621320
v 0.106252 0.612810 0.621320
v 0.000000 1.307417 0.000000
v -0.306147 0.000000 0.739104
v 0.306147 0.000000 0.739104
v 0.382683 0.000000 0.923880
v 0.923879 0.000000 0.382684
v 0.382683 0.100000 0.923880
v 0.923879 0.100000 0.382684
v 0.382683 0.664022 0.923880
v 0.923879 0.664022 0.382684
v 0.382683 0.892573 0.923880
v 0.923879 0.892573 0.382684
v 0.356992 0.100000 0.861855
v 0.861855 0.100000 0.356992
v 0.356992 0.664022 0.861855
v 0.861855 0.664022 0.356992
v 0.401696 0.149943 0.817150
v 0.817150 0.149943 0.401696
v 0.401696 0.614079 0.817150
v 0.817150 0.614079 0.401696
v 0.364208 0.444940 0.514471
v 0.514471 0.444940 0.364208
v 0.364208 0.612810 0.514471
v 0.514471 0.612810 0.364208
v 0.000000 1.307417 0.000000
v 0.306147 0.000000 0.739104
v 0.739104 0.000000 0.306147
v 0.923879 0.000000 0.382684
v 0.923880 0.000000 -0.382683
v 0.923879 0.100000 0.382684
v 0.923880 0.100000 -0.382683
v 0.923879 0.664022 0.382684
v 0.923880 0.664022 -0.382683
v 0.923879 0.892573 0.382684
v 0.923880 0.892573 -0.382683
v 0.861854 0.100000 0.356992
v 0.861855 0.100000 -0.356992
v 0.861854 0.664022 0.356992
v 0.861855 0.664022 -0.356992
v 0.861854 0.149943 0.293771
v 0.861855 0.149943 -0.293770
v 0.861854 0.614079 0.293771
v 0.861855 0.614079 -0.293770
v 0.621320 0.444940 0.106252
v 0.621320 0.444940 -0.106252
v 0.621320 0.612810 0.106252
v 0.621320 0.612810 -0.106252
v 0.000000 1.307417 0.000000
v 0.739103 0.000000 0.306147
v 0.739104 0.000000 -0.306147
v 0.923879 0.000000 -0.382683
v 0.382684 0.000000 -0.923879
v 0.923879 0.100000 -0.382683
v 0.382684 0.100000 -0.923879
v 0.923879 0.664022 -0.382683
v 0.382684 0.664022 -0.923879
v 0.923879 0.892573 -0.382683
v 0.382684 0.892573 -0.923879
v 0.861855 0.100000 -0.356992
v 0.356992 0.100000 -0.861854
v 0.861855 0.664022 -0.356992
v 0.356992 0.664022 -0.861854
v 0.817150 0.149943 -0.401696
v 0.401696 0.149943 -0.817150
v 0.817150 0.614079 -0.401696
v 0.401696 0.614079 -0.817150
v 0.514471 0.444940 -0.364208
v 0.364208 0.444940 -0.514471
v 0.514471 0.612810 -0.364208
v 0.364208 0.612810 -0.514471
v 0.000000 1.307417 0.000000
v 0.739104 0.000000 -0.306147
v 0.306147 0.000000 -0.739103
v 0.382684 0.000000 -0.923879
v -0.382683 0.000000 -0.923880
v 0.382684 0.100000 -0.923879
v -0.382683 0.100000 -0.923880
v 0.382684 0.664022 -0.923879
v -0.382683 0.664022 -0.923880
v 0.382684 0.892573 -0.923879
v -0.382683 0.892573 -0.923880
v 0.356992 0.100000 -0.861854
v -0.356992 0.100000 -0.861855
v 0.356992 0.664022 -0.861854
v -0.356992 0.664022 -0.861855
v 0.293771 0.149943 -0.861854
v -0.293770 0.149943 -0.861855
v 0.293771 0.614079 -0.861854
v -0.293770 0.614079 -0.861855
v 0.106252 0.444940 -0.621320
v -0.106252 0.444940 -0.621320
v 0.106252 0.612810 -0.621320
v -0.106252 0.612810 -0.621320
v 0.000000 1.307417 0.000000
v 0.306147 0.000000 -0.739103
v -0.306147 0.000000 -0.739104
v -0.382683 0.000000 -0.923879
v -0.923879 0.000000 -0.382684
v -0.382683 0.100000 -0.923879
v -0.923879 0.100000 -0.382684
v -0.382683 0.664022 -0.923879
v -0.923879 0.664022 -0.382684
v -0.382683 0.892573 -0.923879
v -0.923879 0.892573 -0.382684
v -0.356992 0.100000 -0.861855
v -0.861854 0.100000 -0.356992
v -0.356992 0.664022 -0.861855
v -0.861854 0.664022 -0.356992
v -0.401696 0.149943 -0.817150
v -0.817150 0.149943 -0.401696
v -0.401696 0.614079 -0.817150
v -0.817150 0.614079 -0.401696
v -0.364208 0.444940 -0.514471
v -0.514471 0.444940 -0.364208
v -0.364208 0.612810 -0.514471
v -0.514471 0.612810 -0.364208
v 0.000000 1.307417 0.000000
v -0.306147 0.000000 -0.739104
v -0.739103 0.000000 -0.306147
v -0.923879 0.000000 -0.382684
v -0.923880 0.000000 0.382683
v -0.923879 0.100000 -0.382684
v -0.923880 0.100000 0.382683
v -0.923879 0.664022 -0.382684
v -0.923880 0.664022 0.382683
v -0.923879 0.892573 -0.382684
v -0.923880 0.892573 0.382683
v -0.861854 0.100000 -0.356992
v -0.861855 0.100000 0.356992
v -0.861854 0.664022 -0.356992
v -0.861855 0.664022 0.356992
v -0.861854 0.149943 -0.293771
v -0.861855 0.149943 0.293770
v -0.861854 0.614079 -0.293771
v -0.861855 0.614079 0.293770
v -0.621320 0.444940 -0.106252
v -0.621320 0.444940 0.106252
v -0.621320 0.612810 -0.106252
v -0.621320 0.612810 0.106252
v 0.000000 1.307417 0.000000
v -0.739103 0.000000 -0.306147
v -0.739104 0.000000 0.306147
v -0.923879 0.000000 0.382683
v -0.382684 0.000000 0.923879
v -0.923879 0.100000 0.382683
v -0.382684 0.100000 0.923879
v -0.923879 0.664022 0.382683
v -0.382684 0.664022 0.923879
v -0.923879 0.892573 0.382683
v -0.382684 0.892573 0.923879
v -0.861855 0.100000 0.356992
v -0.356992 0.100000 0.861854
v -0.861855 0.664022 0.356992
v -0.356992 0.664022 0.861854
v -0.817150 0.149943 0.401696
v -0.401696 0.149943 0.817150
v -0.817150 0.614079 0.401696
v -0.401696 0.614079 0.817150
v -0.514471 0.444940 0.364208
v -0.364208 0.444940 0.514471
v -0.514471 0.612810 0.364208
v -0.364208 0.612810 0.514471
v 0.000000 1.307417 0.000000
v -0.739104 0.000000 0.306147
v -0.306147 0.000000 0.739103
vt 1.000000 0.375000
vt 0.937500 0.031250
vt 1.000000 0.000000
vt -0.000000 0.250000
vt 0.687500 0.312500
vt 0.031250 0.312500
vt 0.031250 0.968750
vt 0.125000 0.656250
vt 0.125000 0.968750
vt 0.718750 0.250000
vt 0.000000 0.125000
vt 0.718750 0.125000
vt -0.000000 0.656250
vt -0.000000 0.968750
vt 0.343750 0.687500
vt 0.468750 0.562500
vt 0.468750 0.687500
vt 0.562500 1.000000
vt 0.968750 0.937500
vt 1.000000 1.000000
vt 0.875000 0.000000
vt 0.937500 0.343750
vt 0.875000 0.375000
vt 1.000000 0.875000
vt 0.593750 0.937500
vt 0.562500 0.875000
vt 0.250000 0.437500
vt 0.062500 0.562500
vt 0.062500 0.437500
vt 1.000000 0.843750
vt 0.718750 0.718750
vt 0.906250 0.718750
vt 0.593750 0.687500
vt 0.468750 0.562500
vt 0.593750 0.375000
vt 1.000000 0.531250
vt 0.718750 0.718750
vt 0.625000 0.531250
vt 0.562500 0.812500
vt 0.656250 0.000000
vt 1.000000 0.375000
vt 0.937500 0.031250
vt 1.000000 0.000000
vt 0.718750 0.250000
vt 0.031250 0.312500
vt -0.000000 0.250000
vt 0.031250 0.968750
vt 0.125000 0.656250
vt 0.125000 0.968750
vt 0.000000 0.125000
vt 0.718750 0.125000
vt -0.000000 0.656250
vt -0.000000 0.968750
vt 0.343750 0.687500
vt 0.468750 0.562500
vt 0.468750 0.687500
vt 0.562500 1.000000
vt 0.968750 0.937500
vt 1.000000 1.000000
vt 0.875000 0.000000
vt 0.937500 0.343750
vt 0.875000 0.375000
vt 1.000000 0.875000
vt 0.593750 0.937500
vt 0.562500 0.875000
vt 0.250000 0.437500
vt 0.062500 0.562500
vt 0.062500 0.437500
vt 1.000000 0.843750
vt 0.718750 0.718750
vt 0.906250 0.718750
vt 0.593750 0.687500
vt 0.468750 0.562500
vt 0.593750 0.375000
vt 1.000000 0.531250
vt 0.718750 0.718750
vt 0.625000 0.531250
vt 0.562500 0.812500
vt 0.656250 0.000000
vt 1.000000 0.375000
vt 0.937500 0.031250
vt 1.000000 0.000000
vt 0.718750 0.250000
vt 0.031250 0.312500
vt -0.000000 0.250000
vt 0.031250 0.968750
vt 0.125000 0.656250
vt 0.125000 0.968750
vt 0.000000 0.125000
vt 0.718750 0.125000
vt 0.031250 0.656250
vt -0.000000 0.968750
vt -0.000000 0.656250
vt 0.343750 0.687500
vt 0.468750 0.562500
vt 0.468750 0.687500
vt 0.562500 1.000000
vt 0.968750 0.937500
vt 1.000000 1.000000
vt 0.875000 0.000000
vt 0.937500 0.343750
vt 0.875000 0.375000
vt 1.000000 0.875000
vt 0.593750 0.937500
vt 0.562500 0.875000
vt 0.250000 0.437500
vt 0.062500 0.562500
vt 0.062500 0.437500
vt 1.000000 0.843750
vt 0.718750 0.718750
vt 0.906250 0.718750
vt 0.593750 0.687500
vt 0.468750 0.562500
vt 0.593750 0.375000
vt 1.000000 0.531250
vt 0.718750 0.718750
vt 0.625000 0.531250
vt 0.562500 0.812500
vt 0.656250 0.000000
vt 1.000000 0.375000
vt 0.937500 0.031250
vt 1.000000 0.000000
vt -0.000000 0.250000
vt 0.687500 0.312500
vt 0.031250 0.312500
vt 0.031250 0.968750
vt 0.125000 0.656250
vt 0.125000 0.968750
vt 0.718750 0.250000
vt 0.000000 0.125000
vt 0.718750 0.125000
vt -0.000000 0.656250
vt -0.000000 0.968750
vt 0.343750 0.687500
vt 0.468750 0.562500
vt 0.468750 0.687500
vt 0.562500 1.000000
vt 0.968750 0.937500
vt 1.000000 1.000000
vt 0.875000 0.000000
vt 0.937500 0.343750
vt 0.875000 0.375000
vt 0.562500 0.875000
vt 0.968750 0.937500
vt 0.593750 0.937500
vt 0.250000 0.437500
vt 0.062500 0.562500
vt 0.062500 0.437500
vt 1.000000 0.843750
vt 0.718750 0.718750
vt 0.906250 0.718750
vt 0.593750 0.687500
vt 0.468750 0.562500
vt 0.593750 0.375000
vt 1.000000 0.531250
vt 0.718750 0.718750
vt 0.625000 0.531250
vt 0.562500 0.812500
vt 0.656250 0.000000
vt 1.000000 0.375000
vt 0.937500 0.031250
vt 1.000000 0.000000
vt 0.718750 0.250000
vt 0.031250 0.312500
vt -0.000000 0.250000
vt 0.031250 0.968750
vt 0.125000 0.656250
vt 0.125000 0.968750
vt 0.000000 0.125000
vt 0.718750 0.125000
vt 0.031250 0.656250
vt -0.000000 0.968750
vt -0.000000 0.656250
vt 0.343750 0.687500
vt 0.468750 0.562500
vt 0.468750 0.687500
vt 0.562500 1.000000
vt 0.968750 0.937500
vt 1.000000 1.000000
vt 0.875000 0.000000
vt 0.937500 0.343750
vt 0.875000 0.375000
vt 1.000000 0.875000
vt 0.593750 0.937500
vt 0.562500 0.875000
vt 0.250000 0.437500
vt 0.062500 0.562500
vt 0.062500 0.437500
vt 1.000000 0.843750
vt 0.718750 0.718750
vt 0.906250 0.718750
vt 0.593750 0.687500
vt 0.468750 0.562500
vt 0.593750 0.375000
vt 1.000000 0.531250
vt 0.718750 0.718750
vt 0.625000 0.531250
vt 0.562500 0.812500
vt 0.656250 0.000000
vt 1.000000 0.375000
vt 0.937500 0.031250
vt 1.000000 0.000000
vt -0.000000 0.250000
vt 0.687500 0.312500
vt 0.031250 0.312500
vt 0.031250 0.968750
vt 0.125000 0.656250
vt 0.125000 0.968750
vt 0.718750 0.250000
vt 0.000000 0.125000
vt 0.718750 0.125000
vt -0.000000 0.656250
vt -0.000000 0.968750
vt 0.343750 0.687500
vt 0.468750 0.562500
vt 0.468750 0.687500
vt 0.562500 1.000000
vt 0.968750 0.937500
vt 1.000000 1.000000
vt 0.875000 0.000000
vt 0.937500 0.343750
vt 0.875000 0.375000
vt 0.562500 0.875000
vt 0.968750 0.937500
vt 0.593750 0.937500
vt 0.250000 0.437500
vt 0.062500 0.562500
vt 0.062500 0.437500
vt 1.000000 0.843750
vt 0.718750 0.718750
vt 0.906250 0.718750
vt 0.593750 0.687500
vt 0.468750 0.562500
vt 0.593750 0.375000
vt 1.000000 0.531250
vt 0.718750 0.718750
vt 0.625000 0.531250
vt 0.562500 0.812500
vt 0.656250 0.000000
vt 1.000000 0.375000
vt 0.937500 0.031250
vt 1.000000 0.000000
vt 0.718750 0.250000
vt 0.031250 0.312500
vt -0.000000 0.250000
vt 0.031250 0.968750
vt 0.125000 0.656250
vt 0.125000 0.968750
vt 0.000000 0.125000
vt 0.718750 0.125000
vt 0.031250 0.656250
vt -0.000000 0.968750
vt -0.000000 0.656250
vt 0.343750 0.687500
vt 0.468750 0.562500
vt 0.468750 0.687500
vt 0.562500 1.000000
vt 0.968750 0.937500
vt 1.000000 1.000000
vt 0.875000 0.000000
vt 0.937500 0.343750
vt 0.875000 0.375000
vt 1.000000 0.875000
vt 0.593750 0.937500
vt 0.562500 0.875000
vt 0.250000 0.437500
vt 0.062500 0.562500
vt 0.062500 0.437500
vt 1.000000 0.843750
vt 0.718750 0.718750
vt 0.906250 0.718750
vt 0.593750 0.687500
vt 0.468750 0.562500
vt 0.593750 0.375000
vt 1.000000 0.531250
vt 0.718750 0.718750
vt 0.625000 0.531250
vt 0.562500 0.812500
vt 0.656250 0.000000
vt 1.000000 0.375000
vt 0.937500 0.031250
vt 1.000000 0.000000
vt -0.000000 0.250000
vt 0.687500 0.312500
vt 0.031250 0.312500
vt 0.031250 0.968750
vt 0.125000 0.656250
vt 0.125000 0.968750
vt 0.718750 0.250000
vt 0.000000 0.125000
vt 0.718750 0.125000
vt -0.000000 0.656250
vt -0.000000 0.968750
vt 0.343750 0.687500
vt 0.468750 0.562500
vt 0.468750 0.687500
vt 0.562500 1.000000
vt 0.968750 0.937500
vt 1.000000 1.000000
vt 0.875000 0.000000
vt 0.937500 0.343750
vt 0.875000 0.375000
vt 0.562500 0.875000
vt 0.968750 0.937500
vt 0.593750 0.937500
vt 0.250000 0.437500
vt 0.062500 0.562500
vt 0.062500 0.437500
vt 1.000000 0.843750
vt 0.718750 0.718750
vt 0.906250 0.718750
vt 0.593750 0.687500
vt 0.468750 0.562500
vt 0.593750 0.375000
vt 1.000000 0.531250
vt 0.718750 0.718750
vt 0.625000 0.531250
vt 0.562500 0.812500
vt 0.656250 0.000000
vt 0.937500 0.343750
vt 0.031250 0.656250
vt 0.343750 0.375000
vt 0.593750 0.937500
vt 0.937500 0.031250
vt 0.968750 0.937500
vt 0.250000 0.562500
vt 0.625000 0.843750
vt 0.468750 0.687500
vt 0.906250 0.718750
vt 0.062500 0.000000
vt 0.937500 0.343750
vt 0.687500 0.312500
vt 0.031250 0.656250
vt 0.343750 0.375000
vt 0.593750 0.937500
vt 0.937500 0.031250
vt 0.968750 0.937500
vt 0.250000 0.562500
vt 0.625000 0.843750
vt 0.468750 0.687500
vt 0.906250 0.718750
vt 0.062500 0.000000
vt 0.937500 0.343750
vt 0.687500 0.312500
vt 0.343750 0.375000
vt 0.593750 0.937500
vt 0.937500 0.031250
vt 0.968750 0.937500
vt 0.250000 0.562500
vt 0.625000 0.843750
vt 0.468750 0.687500
vt 0.906250 0.718750
vt 0.062500 0.000000
vt 0.937500 0.343750
vt 0.031250 0.656250
vt 0.343750 0.375000
vt 0.593750 0.937500
vt 0.937500 0.031250
vt 1.000000 0.875000
vt 0.250000 0.562500
vt 0.625000 0.843750
vt 0.468750 0.687500
vt 0.906250 0.718750
vt 0.062500 0.000000
vt 0.937500 0.343750
vt 0.687500 0.312500
vt 0.343750 0.375000
vt 0.593750 0.937500
vt 0.937500 0.031250
vt 0.968750 0.937500
vt 0.250000 0.562500
vt 0.625000 0.843750
vt 0.468750 0.687500
vt 0.906250 0.718750
vt 0.062500 0.000000
vt 0.937500 0.343750
vt 0.031250 0.656250
vt 0.343750 0.375000
vt 0.593750 0.937500
vt 0.937500 0.031250
vt 1.000000 0.875000
vt 0.250000 0.562500
vt 0.625000 0.843750
vt 0.468750 0.687500
vt 0.906250 0.718750
vt 0.062500 0.000000
vt 0.937500 0.343750
vt 0.687500 0.312500
vt 0.343750 0.375000
vt 0.593750 0.937500
vt 0.937500 0.031250
vt 0.968750 0.937500
vt 0.250000 0.562500
vt 0.625000 0.843750
vt 0.468750 0.687500
vt 0.906250 0.718750
vt 0.062500 0.000000
vt 0.937500 0.343750
vt 0.031250 0.656250
vt 0.343750 0.375000
vt 0.593750 0.937500
vt 0.937500 0.031250
vt 1.000000 0.875000
vt 0.250000 0.562500
vt 0.625000 0.843750
vt 0.468750 0.687500
vt 0.906250 0.718750
vt 0.062500 0.000000
vn 0.0000 0.0000 1.0000
vn 0.0000 1.0000 0.0000
vn 0.0000 -1.0000 0.0000
vn 0.7887 0.0000 0.6148
vn 0.0000 -1.0000 0.0053
vn -0.7887 0.0000 0.6148
vn -0.0000 0.6319 0.7750
vn -0.0000 0.9123 0.4096
vn 0.7071 0.0000 0.7071
vn 0.9924 0.0000 -0.1229
vn 0.0037 -1.0000 0.0037
vn -0.1229 0.0000 0.9924
vn 0.5480 0.6319 0.5480
vn 0.2896 0.9123 0.2896
vn 1.0000 0.0000 0.0000
vn 0.6148 0.0000 -0.7887
vn 0.0053 -1.0000 0.0000
vn 0.6148 0.0000 0.7887
vn 0.7750 0.6319 0.0000
vn 0.4096 0.9123 0.0000
vn 0.7071 0.0000 -0.7071
vn -0.1229 0.0000 -0.9924
vn 0.0037 -1.0000 -0.0037
vn 0.9924 0.0000 0.1229
vn 0.5480 0.6319 -0.5480
vn 0.2896 0.9123 -0.2896
vn 0.0000 0.0000 -1.0000
vn -0.7887 0.0000 -0.6148
vn 0.0000 -1.0000 -0.0053
vn 0.7887 0.0000 -0.6148
vn 0.0000 0.6319 -0.7750
vn 0.0000 0.9123 -0.4096
vn -0.7071 0.0000 -0.7071
vn -0.9924 0.0000 0.1229
vn -0.0037 -1.0000 -0.0037
vn 0.1229 0.0000 -0.9924
vn -0.5480 0.6319 -0.5480
vn -0.2896 0.9123 -0.2896
vn -1.0000 0.0000 0.0000
vn -0.6148 0.0000 0.7887
vn -0.0053 -1.0000 0.0000
vn -0.6148 0.0000 -0.7887
vn -0.7750 0.6319 -0.0000
vn -0.4096 0.9123 -0.0000
vn -0.7071 0.0000 0.7071
vn 0.1229 0.0000 0.9924
vn -0.0037 -1.0000 0.0037
vn -0.9924 0.0000 -0.1229
vn -0.5480 0.6319 0.5480
vn -0.2896 0.9123 0.2896
s off
f 12/1/1 14/2/1 10/3/1
f 3/4/2 10/5/2 9/6/2
f 5/7/1 8/8/1 7/9/1
f 4/10/1 1/11/1 2/12/1
f 12/13/3 5/7/3 11/14/3
f 15/15/4 17/16/4 19/17/4
f 11/18/1 16/19/1 12/20/1
f 9/21/1 15/22/1 11/23/1
f 10/24/1 13/25/1 9/26/1
f 18/27/1 19/28/1 17/29/1
f 16/30/5 19/31/5 20/32/5
f 16/33/6 18/34/6 14/35/6
f 14/36/7 17/37/7 13/38/7
f 7/9/8 8/8/8 21/39/8
f 1/11/3 23/40/3 2/12/3
f 35/41/9 37/42/9 33/43/9
f 27/44/2 32/45/2 26/46/2
f 28/47/9 31/48/9 30/49/9
f 27/44/9 24/50/9 25/51/9
f 35/52/3 28/47/3 34/53/3
f 38/54/10 40/55/10 42/56/10
f 34/57/9 39/58/9 35/59/9
f 32/60/9 38/61/9 34/62/9
f 33/63/9 36/64/9 32/65/9
f 41/66/9 42/67/9 40/68/9
f 39/69/11 42/70/11 43/71/11
f 39/72/12 41/73/12 37/74/12
f 37/75/13 40/76/13 36/77/13
f 30/49/14 31/48/14 44/78/14
f 24/50/3 46/79/3 25/51/3
f 58/80/15 60/81/15 56/82/15
f 50/83/2 55/84/2 49/85/2
f 51/86/15 54/87/15 53/88/15
f 50/83/15 47/89/15 48/90/15
f 52/91/3 57/92/3 58/93/3
f 61/94/16 63/95/16 65/96/16
f 57/97/15 62/98/15 58/99/15
f 55/100/15 61/101/15 57/102/15
f 56/103/15 59/104/15 55/105/15
f 64/106/15 65/107/15 63/108/15
f 62/109/17 65/110/17 66/111/17
f 62/112/18 64/113/18 60/114/18
f 60/115/19 63/116/19 59/117/19
f 53/88/20 54/87/20 67/118/20
f 47/89/3 69/119/3 48/90/3
f 81/120/21 83/121/21 79/122/21
f 72/123/2 79/124/2 78/125/2
f 74/126/21 77/127/21 76/128/21
f 73/129/21 70/130/21 71/131/21
f 81/132/3 74/126/3 80/133/3
f 84/134/22 86/135/22 88/136/22
f 80/137/21 85/138/21 81/139/21
f 78/140/21 84/141/21 80/142/21
f 78/143/21 83/144/21 82/145/21
f 87/146/21 88/147/21 86/148/21
f 85/149/23 88/150/23 89/151/23
f 85/152/24 87/153/24 83/154/24
f 83/155/25 86/156/25 82/157/25
f 76/128/26 77/127/26 90/158/26
f 70/130/3 92/159/3 71/131/3
f 104/160/27 106/161/27 102/162/27
f 96/163/2 101/164/2 95/165/2
f 97/166/27 100/167/27 99/168/27
f 96/163/27 93/169/27 94/170/27
f 98/171/3 103/172/3 104/173/3
f 107/174/28 109/175/28 111/176/28
f 103/177/27 108/178/27 104/179/27
f 101/180/27 107/181/27 103/182/27
f 102/183/27 105/184/27 101/185/27
f 110/186/27 111/187/27 109/188/27
f 108/189/29 111/190/29 112/191/29
f 108/192/30 110/193/30 106/194/30
f 106/195/31 109/196/31 105/197/31
f 99/168/32 100/167/32 113/198/32
f 93/169/3 115/199/3 94/170/3
f 127/200/33 129/201/33 125/202/33
f 118/203/2 125/204/2 124/205/2
f 120/206/33 123/207/33 122/208/33
f 119/209/33 116/210/33 117/211/33
f 127/212/3 120/206/3 126/213/3
f 130/214/34 132/215/34 134/216/34
f 126/217/33 131/218/33 127/219/33
f 124/220/33 130/221/33 126/222/33
f 124/223/33 129/224/33 128/225/33
f 133/226/33 134/227/33 132/228/33
f 131/229/35 134/230/35 135/231/35
f 131/232/36 133/233/36 129/234/36
f 129/235/37 132/236/37 128/237/37
f 122/208/38 123/207/38 136/238/38
f 116/210/3 138/239/3 117/211/3
f 150/240/39 152/241/39 148/242/39
f 142/243/2 147/244/2 141/245/2
f 143/246/39 146/247/39 145/248/39
f 142/243/39 139/249/39 140/250/39
f 144/251/3 149/252/3 150/253/3
f 153/254/40 155/255/40 157/256/40
f 149/257/39 154/258/39 150/259/39
f 147/260/39 153/261/39 149/262/39
f 148/263/39 151/264/39 147/265/39
f 156/266/39 157/267/39 155/268/39
f 154/269/41 157/270/41 158/271/41
f 154/272/42 156/273/42 152/274/42
f 152/275/43 155/276/43 151/277/43
f 145/248/44 146/247/44 159/278/44
f 139/249/3 161/279/3 140/250/3
f 173/280/45 175/281/45 171/282/45
f 164/283/2 171/284/2 170/285/2
f 166/286/45 169/287/45 168/288/45
f 165/289/45 162/290/45 163/291/45
f 173/292/3 166/286/3 172/293/3
f 176/294/46 178/295/46 180/296/46
f 172/297/45 177/298/45 173/299/45
f 170/300/45 176/301/45 172/302/45
f 170/303/45 175/304/45 174/305/45
f 179/306/45 180/307/45 178/308/45
f 177/309/47 180/310/47 181/311/47
f 177/312/48 179/313/48 175/314/48
f 175/315/49 178/316/49 174/317/49
f 168/288/50 169/287/50 182/318/50
f 162/290/3 184/319/3 163/291/3
f 12/1/1 16/320/1 14/2/1
f 3/4/2 4/10/2 10/5/2
f 5/7/1 6/321/1 8/8/1
f 4/10/1 3/4/1 1/11/1
f 12/13/3 6/321/3 5/7/3
f 15/15/4 13/322/4 17/16/4
f 11/18/1 15/323/1 16/19/1
f 9/21/1 13/324/1 15/22/1
f 10/24/1 14/325/1 13/25/1
f 18/27/1 20/326/1 19/28/1
f 16/30/5 15/327/5 19/31/5
f 16/33/6 20/328/6 18/34/6
f 14/36/7 18/329/7 17/37/7
f 1/11/3 22/330/3 23/40/3
f 35/41/9 39/331/9 37/42/9
f 27/44/2 33/332/2 32/45/2
f 28/47/9 29/333/9 31/48/9
f 27/44/9 26/46/9 24/50/9
f 35/52/3 29/333/3 28/47/3
f 38/54/10 36/334/10 40/55/10
f 34/57/9 38/335/9 39/58/9
f 32/60/9 36/336/9 38/61/9
f 33/63/9 37/337/9 36/64/9
f 41/66/9 43/338/9 42/67/9
f 39/69/11 38/339/11 42/70/11
f 39/72/12 43/340/12 41/73/12
f 37/75/13 41/341/13 40/76/13
f 24/50/3 45/342/3 46/79/3
f 58/80/15 62/343/15 60/81/15
f 50/83/2 56/344/2 55/84/2
f 51/86/15 52/91/15 54/87/15
f 50/83/15 49/85/15 47/89/15
f 52/91/3 51/86/3 57/92/3
f 61/94/16 59/345/16 63/95/16
f 57/97/15 61/346/15 62/98/15
f 55/100/15 59/347/15 61/101/15
f 56/103/15 60/348/15 59/104/15
f 64/106/15 66/349/15 65/107/15
f 62/109/17 61/350/17 65/110/17
f 62/112/18 66/351/18 64/113/18
f 60/115/19 64/352/19 63/116/19
f 47/89/3 68/353/3 69/119/3
f 81/120/21 85/354/21 83/121/21
f 72/123/2 73/129/2 79/124/2
f 74/126/21 75/355/21 77/127/21
f 73/129/21 72/123/21 70/130/21
f 81/132/3 75/355/3 74/126/3
f 84/134/22 82/356/22 86/135/22
f 80/137/21 84/357/21 85/138/21
f 78/140/21 82/358/21 84/141/21
f 78/143/21 79/359/21 83/144/21
f 87/146/21 89/360/21 88/147/21
f 85/149/23 84/361/23 88/150/23
f 85/152/24 89/362/24 87/153/24
f 83/155/25 87/363/25 86/156/25
f 70/130/3 91/364/3 92/159/3
f 104/160/27 108/365/27 106/161/27
f 96/163/2 102/366/2 101/164/2
f 97/166/27 98/171/27 100/167/27
f 96/163/27 95/165/27 93/169/27
f 98/171/3 97/166/3 103/172/3
f 107/174/28 105/367/28 109/175/28
f 103/177/27 107/368/27 108/178/27
f 101/180/27 105/369/27 107/181/27
f 102/183/27 106/370/27 105/184/27
f 110/186/27 112/371/27 111/187/27
f 108/189/29 107/372/29 111/190/29
f 108/192/30 112/373/30 110/193/30
f 106/195/31 110/374/31 109/196/31
f 93/169/3 114/375/3 115/199/3
f 127/200/33 131/376/33 129/201/33
f 118/203/2 119/209/2 125/204/2
f 120/206/33 121/377/33 123/207/33
f 119/209/33 118/203/33 116/210/33
f 127/212/3 121/377/3 120/206/3
f 130/214/34 128/378/34 132/215/34
f 126/217/33 130/379/33 131/218/33
f 124/220/33 128/380/33 130/221/33
f 124/223/33 125/381/33 129/224/33
f 133/226/33 135/382/33 134/227/33
f 131/229/35 130/383/35 134/230/35
f 131/232/36 135/384/36 133/233/36
f 129/235/37 133/385/37 132/236/37
f 116/210/3 137/386/3 138/239/3
f 150/240/39 154/387/39 152/241/39
f 142/243/2 148/388/2 147/244/2
f 143/246/39 144/251/39 146/247/39
f 142/243/39 141/245/39 139/249/39
f 144/251/3 143/246/3 149/252/3
f 153/254/40 151/389/40 155/255/40
f 149/257/39 153/390/39 154/258/39
f 147/260/39 151/391/39 153/261/39
f 148/263/39 152/392/39 151/264/39
f 156/266/39 158/393/39 157/267/39
f 154/269/41 153/394/41 157/270/41
f 154/272/42 158/395/42 156/273/42
f 152/275/43 156/396/43 155/276/43
f 139/249/3 160/397/3 161/279/3
f 173/280/45 177/398/45 175/281/45
f 164/283/2 165/289/2 171/284/2
f 166/286/45 167/399/45 169/287/45
f 165/289/45 164/283/45 162/290/45
f 173/292/3 167/399/3 166/286/3
f 176/294/46 174/400/46 178/295/46
f 172/297/45 176/401/45 177/298/45
f 170/300/45 174/402/45 176/301/45
f 170/303/45 171/403/45 175/304/45
f 179/306/45 181/404/45 180/307/45
f 177/309/47 176/405/47 180/310/47
f 177/312/48 181/406/48 179/313/48
f 175/315/49 179/407/49 178/316/49
f 162/290/3 183/408/3 184/319/3
