# Blender v2.79 (sub 0) OBJ File: 'spikeTrap.blend'
# www.blender.org
o Cube
v 0.122790 0.000000 0.122790
v 0.176705 0.104915 0.176705
v 0.131334 0.104915 0.131334
v 0.131334 0.156143 0.131334
v 0.183799 0.183432 0.183799
v 0.183799 0.221471 0.183799
v 0.123094 0.278530 0.123094
v 0.052573 0.311531 0.052573
v 0.064145 0.103823 0.124027
v 0.122227 0.103823 0.124027
v 0.064145 0.161905 0.124027
v 0.122227 0.161905 0.124027
v 0.093186 0.132864 0.490194
v 0.000000 0.000000 0.173651
v -0.122790 0.000000 0.122790
v 0.000000 0.104915 0.249899
v -0.176705 0.104915 0.176705
v 0.000000 0.104915 0.185735
v -0.131334 0.104915 0.131334
v 0.000000 0.156143 0.185735
v -0.131334 0.156143 0.131334
v 0.000000 0.183432 0.259931
v -0.183799 0.183432 0.183799
v 0.000000 0.221471 0.259931
v -0.183799 0.221471 0.183799
v 0.000000 0.278530 0.174082
v -0.123094 0.278530 0.123094
v 0.000000 0.311531 0.074350
v -0.052573 0.311531 0.052573
v 0.000000 0.311531 -0.000000
v -0.064145 0.103823 0.124027
v -0.122227 0.103823 0.124027
v -0.064145 0.161905 0.124027
v -0.122227 0.161905 0.124027
v -0.093186 0.132864 0.490194
v 0.122790 0.000000 -0.122790
v 0.176705 0.104915 -0.176705
v 0.131334 0.104915 -0.131334
v 0.131334 0.156143 -0.131334
v 0.183799 0.183432 -0.183799
v 0.183799 0.221471 -0.183799
v 0.123094 0.278530 -0.123094
v 0.052573 0.311531 -0.052573
v 0.124027 0.103823 -0.064145
v 0.124027 0.103823 -0.122227
v 0.124027 0.161905 -0.064145
v 0.124027 0.161905 -0.122227
v 0.490194 0.132864 -0.093186
v 0.173651 0.000000 -0.000000
v 0.122790 0.000000 0.122790
v 0.249899 0.104915 -0.000000
v 0.176705 0.104915 0.176705
v 0.185735 0.104915 -0.000000
v 0.131334 0.104915 0.131334
v 0.185735 0.156143 -0.000000
v 0.131334 0.156143 0.131334
v 0.259931 0.183432 -0.000000
v 0.183799 0.183432 0.183799
v 0.259931 0.221471 -0.000000
v 0.183799 0.221471 0.183799
v 0.174082 0.278530 -0.000000
v 0.123094 0.278530 0.123094
v 0.074350 0.311531 -0.000000
v 0.052573 0.311531 0.052573
v -0.000000 0.311531 0.000000
v 0.124027 0.103823 0.064145
v 0.124027 0.103823 0.122227
v 0.124027 0.161905 0.064145
v 0.124027 0.161905 0.122227
v 0.490194 0.132864 0.093186
v -0.122790 0.000000 -0.122790
v -0.176705 0.104915 -0.176705
v -0.131334 0.104915 -0.131334
v -0.131334 0.156143 -0.131334
v -0.183799 0.183432 -0.183799
v -0.183799 0.221471 -0.183799
v -0.123094 0.278530 -0.123094
v -0.052573 0.311531 -0.052573
v -0.064145 0.103823 -0.124027
v -0.122227 0.103823 -0.124027
v -0.064145 0.161905 -0.124027
v -0.122227 0.161905 -0.124027
v -0.093186 0.132864 -0.490194
v -0.000000 0.000000 -0.173651
v 0.122790 0.000000 -0.122790
v -0.000000 0.104915 -0.249899
v 0.176705 0.104915 -0.176705
v -0.000000 0.104915 -0.185735
v 0.131334 0.104915 -0.131334
v -0.000000 0.156143 -0.185735
v 0.131334 0.156143 -0.131334
v -0.000000 0.183432 -0.259931
v 0.183799 0.183432 -0.183799
v -0.000000 0.221471 -0.259931
v 0.183799 0.221471 -0.183799
v -0.000000 0.278530 -0.174082
v 0.123094 0.278530 -0.123094
v -0.000000 0.311531 -0.074350
v 0.052573 0.311531 -0.052573
v 0.000000 0.311531 0.000000
v 0.064145 0.103823 -0.124027
v 0.122227 0.103823 -0.124027
v 0.064145 0.161905 -0.124027
v 0.122227 0.161905 -0.124027
v 0.093186 0.132864 -0.490194
v -0.122790 0.000000 0.122790
v -0.176705 0.104915 0.176705
v -0.131334 0.104915 0.131334
v -0.131334 0.156143 0.131334
v -0.183799 0.183432 0.183799
v -0.183799 0.221471 0.183799
v -0.123094 0.278530 0.123094
v -0.052573 0.311531 0.052573
v -0.124027 0.103823 0.064145
v -0.124027 0.103823 0.122227
v -0.124027 0.161905 0.064145
v -0.124027 0.161905 0.122227
v -0.490194 0.132864 0.093186
v -0.173651 0.000000 0.000000
v -0.122790 0.000000 -0.122790
v -0.249899 0.104915 0.000000
v -0.176705 0.104915 -0.176705
v -0.185735 0.104915 0.000000
v -0.131334 0.104915 -0.131334
v -0.185735 0.156143 0.000000
v -0.131334 0.156143 -0.131334
v -0.259931 0.183432 0.000000
v -0.183799 0.183432 -0.183799
v -0.259931 0.221471 0.000000
v -0.183799 0.221471 -0.183799
v -0.174082 0.278530 0.000000
v -0.123094 0.278530 -0.123094
v -0.074350 0.311531 0.000000
v -0.052573 0.311531 -0.052573
v 0.000000 0.311531 -0.000000
v -0.124027 0.103823 -0.064145
v -0.124027 0.103823 -0.122227
v -0.124027 0.161905 -0.064145
v -0.124027 0.161905 -0.122227
v -0.490194 0.132864 -0.093186
vt 0.343750 0.218750
vt 0.062500 0.000000
vt 0.312500 -0.000000
vt 0.312500 0.312500
vt 0.031250 0.218750
vt 0.312500 0.375000
vt 0.062500 0.312500
vt 0.375000 0.500000
vt 0.062500 0.375000
vt 0.375000 0.562500
vt 0.000000 0.500000
vt 0.062500 0.718750
vt 0.000000 0.562500
vt 0.312500 0.718750
vt 0.125000 0.875000
vt 0.250000 0.875000
vt 0.187500 1.000000
vt 0.750000 1.000000
vt 0.500000 1.000000
vt 0.625000 0.000000
vt 0.750000 1.000000
vt 0.500000 1.000000
vt 0.750000 1.000000
vt 0.500000 1.000000
vt 0.750000 1.000000
vt 0.500000 1.000000
vt 0.343750 0.218750
vt 0.312500 -0.000000
vt 0.312500 0.312500
vt 0.312500 0.375000
vt 0.375000 0.500000
vt 0.375000 0.562500
vt 0.312500 0.718750
vt 0.250000 0.875000
vt 0.750000 1.000000
vt 0.625000 0.000000
vt 0.500000 1.000000
vt 0.750000 1.000000
vt 0.500000 1.000000
vt 0.750000 1.000000
vt 0.500000 1.000000
vt 0.750000 1.000000
vt 0.500000 1.000000
vt 0.312500 -0.000000
vt 0.031250 0.218750
vt 0.062500 0.000000
vt 0.312500 0.312500
vt 0.343750 0.218750
vt 0.312500 0.375000
vt 0.062500 0.312500
vt 0.375000 0.500000
vt 0.062500 0.375000
vt 0.375000 0.562500
vt 0.000000 0.500000
vt 0.062500 0.718750
vt 0.000000 0.562500
vt 0.312500 0.718750
vt 0.125000 0.875000
vt 0.250000 0.875000
vt 0.187500 1.000000
vt 0.750000 1.000000
vt 0.500000 1.000000
vt 0.625000 0.000000
vt 0.750000 1.000000
vt 0.500000 1.000000
vt 0.750000 1.000000
vt 0.500000 1.000000
vt 0.750000 1.000000
vt 0.500000 1.000000
vt 0.343750 0.218750
vt 0.312500 -0.000000
vt 0.312500 0.312500
vt 0.312500 0.375000
vt 0.375000 0.500000
vt 0.375000 0.562500
vt 0.312500 0.718750
vt 0.250000 0.875000
vt 0.750000 1.000000
vt 0.625000 0.000000
vt 0.500000 1.000000
vt 0.750000 1.000000
vt 0.500000 1.000000
vt 0.750000 1.000000
vt 0.500000 1.000000
vt 0.750000 1.000000
vt 0.500000 1.000000
vt 0.312500 -0.000000
vt 0.031250 0.218750
vt 0.062500 0.000000
vt 0.343750 0.218750
vt 0.062500 0.312500
vt 0.312500 0.375000
vt 0.312500 0.312500
vt 0.375000 0.500000
vt 0.062500 0.375000
vt 0.375000 0.562500
vt 0.000000 0.500000
vt 0.312500 0.718750
vt 0.000000 0.562500
vt 0.125000 0.875000
vt 0.062500 0.718750
vt 0.250000 0.875000
vt 0.187500 1.000000
vt 0.750000 1.000000
vt 0.500000 1.000000
vt 0.625000 0.000000
vt 0.750000 1.000000
vt 0.500000 1.000000
vt 0.750000 1.000000
vt 0.500000 1.000000
vt 0.750000 1.000000
vt 0.500000 1.000000
vt 0.343750 0.218750
vt 0.312500 -0.000000
vt 0.312500 0.312500
vt 0.312500 0.375000
vt 0.375000 0.500000
vt 0.375000 0.562500
vt 0.312500 0.718750
vt 0.250000 0.875000
vt 0.750000 1.000000
vt 0.625000 0.000000
vt 0.500000 1.000000
vt 0.750000 1.000000
vt 0.500000 1.000000
vt 0.750000 1.000000
vt 0.500000 1.000000
vt 0.750000 1.000000
vt 0.500000 1.000000
vt 0.343750 0.218750
vt 0.062500 0.000000
vt 0.312500 -0.000000
vt 0.312500 0.312500
vt 0.031250 0.218750
vt 0.312500 0.375000
vt 0.062500 0.312500
vt 0.375000 0.500000
vt 0.062500 0.375000
vt 0.375000 0.562500
vt 0.000000 0.500000
vt 0.062500 0.718750
vt 0.000000 0.562500
vt 0.312500 0.718750
vt 0.125000 0.875000
vt 0.250000 0.875000
vt 0.187500 1.000000
vt 0.750000 1.000000
vt 0.500000 1.000000
vt 0.625000 0.000000
vt 0.750000 1.000000
vt 0.500000 1.000000
vt 0.750000 1.000000
vt 0.500000 1.000000
vt 0.750000 1.000000
vt 0.500000 1.000000
vt 0.343750 0.218750
vt 0.312500 -0.000000
vt 0.312500 0.312500
vt 0.312500 0.375000
vt 0.375000 0.500000
vt 0.375000 0.562500
vt 0.312500 0.718750
vt 0.250000 0.875000
vt 0.750000 1.000000
vt 0.625000 0.000000
vt 0.500000 1.000000
vt 0.750000 1.000000
vt 0.500000 1.000000
vt 0.750000 1.000000
vt 0.500000 1.000000
vt 0.750000 1.000000
vt 0.500000 1.000000
vn 0.3177 -0.5574 0.7670
vn 0.0000 1.0000 0.0000
vn 0.3827 0.0000 0.9239
vn 0.1415 -0.9291 0.3417
vn 0.2235 0.8118 0.5395
vn 0.1290 0.9414 0.3115
vn 0.0000 0.9969 0.0791
vn 0.0000 -0.9969 0.0791
vn 0.9969 0.0000 0.0791
vn -0.9969 0.0000 0.0791
vn -0.3177 -0.5574 0.7670
vn -0.3827 0.0000 0.9239
vn -0.1415 -0.9291 0.3417
vn -0.2235 0.8118 0.5395
vn -0.1290 0.9414 0.3115
vn 0.7670 -0.5574 -0.3177
vn 0.9239 0.0000 -0.3827
vn 0.3417 -0.9291 -0.1415
vn 0.5395 0.8118 -0.2235
vn 0.3115 0.9414 -0.1290
vn 0.0791 0.9969 0.0000
vn 0.0791 -0.9969 0.0000
vn 0.0791 0.0000 -0.9969
vn 0.0791 0.0000 0.9969
vn 0.7670 -0.5574 0.3177
vn 0.9239 0.0000 0.3827
vn 0.3417 -0.9291 0.1415
vn 0.5395 0.8118 0.2235
vn 0.3115 0.9414 0.1290
vn -0.3177 -0.5574 -0.7670
vn -0.3827 0.0000 -0.9239
vn -0.1415 -0.9291 -0.3417
vn -0.2235 0.8118 -0.5395
vn -0.1290 0.9414 -0.3115
vn 0.0000 0.9969 -0.0791
vn 0.0000 -0.9969 -0.0791
vn -0.9969 0.0000 -0.0791
vn 0.9969 0.0000 -0.0791
vn 0.3177 -0.5574 -0.7670
vn 0.3827 0.0000 -0.9239
vn 0.1415 -0.9291 -0.3417
vn 0.2235 0.8118 -0.5395
vn 0.1290 0.9414 -0.3115
vn -0.7670 -0.5574 0.3177
vn -0.9239 0.0000 0.3827
vn -0.3417 -0.9291 0.1415
vn -0.5395 0.8118 0.2235
vn -0.3115 0.9414 0.1290
vn -0.0791 0.9969 0.0000
vn -0.0791 -0.9969 0.0000
vn -0.0791 0.0000 0.9969
vn -0.0791 0.0000 -0.9969
vn -0.7670 -0.5574 -0.3177
vn -0.9239 0.0000 -0.3827
vn -0.3417 -0.9291 -0.1415
vn -0.5395 0.8118 -0.2235
vn -0.3115 0.9414 -0.1290
s off
f 2/1/1 14/2/1 1/3/1
f 3/4/2 16/5/2 2/1/2
f 4/6/3 18/7/3 3/4/3
f 5/8/4 20/9/4 4/6/4
f 6/10/3 22/11/3 5/8/3
f 6/10/5 26/12/5 24/13/5
f 7/14/6 28/15/6 26/12/6
f 8/16/2 30/17/2 28/15/2
f 12/18/7 11/19/7 13/20/7
f 9/21/8 10/22/8 13/20/8
f 10/23/9 12/24/9 13/20/9
f 11/25/10 9/26/10 13/20/10
f 14/2/11 17/27/11 15/28/11
f 16/5/2 19/29/2 17/27/2
f 18/7/12 21/30/12 19/29/12
f 21/30/13 22/11/13 23/31/13
f 22/11/12 25/32/12 23/31/12
f 25/32/14 26/12/14 27/33/14
f 26/12/15 29/34/15 27/33/15
f 29/34/2 28/15/2 30/17/2
f 34/35/7 35/36/7 33/37/7
f 31/38/8 35/36/8 32/39/8
f 32/40/10 35/36/10 34/41/10
f 33/42/9 35/36/9 31/43/9
f 36/44/16 51/45/16 49/46/16
f 38/47/2 51/45/2 37/48/2
f 39/49/17 53/50/17 38/47/17
f 40/51/18 55/52/18 39/49/18
f 41/53/17 57/54/17 40/51/17
f 41/53/19 61/55/19 59/56/19
f 42/57/20 63/58/20 61/55/20
f 43/59/2 65/60/2 63/58/2
f 47/61/21 46/62/21 48/63/21
f 44/64/22 45/65/22 48/63/22
f 45/66/23 47/67/23 48/63/23
f 46/68/24 44/69/24 48/63/24
f 49/46/25 52/70/25 50/71/25
f 52/70/2 53/50/2 54/72/2
f 53/50/26 56/73/26 54/72/26
f 55/52/27 58/74/27 56/73/27
f 57/54/26 60/75/26 58/74/26
f 59/56/28 62/76/28 60/75/28
f 62/76/29 63/58/29 64/77/29
f 64/77/2 63/58/2 65/60/2
f 69/78/21 70/79/21 68/80/21
f 66/81/22 70/79/22 67/82/22
f 67/83/24 70/79/24 69/84/24
f 68/85/23 70/79/23 66/86/23
f 71/87/30 86/88/30 84/89/30
f 72/90/2 88/91/2 86/88/2
f 74/92/31 88/91/31 73/93/31
f 75/94/32 90/95/32 74/92/32
f 76/96/31 92/97/31 75/94/31
f 77/98/33 94/99/33 76/96/33
f 77/98/34 98/100/34 96/101/34
f 78/102/2 100/103/2 98/100/2
f 82/104/35 81/105/35 83/106/35
f 79/107/36 80/108/36 83/106/36
f 80/109/37 82/110/37 83/106/37
f 81/111/38 79/112/38 83/106/38
f 84/89/39 87/113/39 85/114/39
f 86/88/2 89/115/2 87/113/2
f 88/91/40 91/116/40 89/115/40
f 90/95/41 93/117/41 91/116/41
f 92/97/40 95/118/40 93/117/40
f 95/118/42 96/101/42 97/119/42
f 96/101/43 99/120/43 97/119/43
f 99/120/2 98/100/2 100/103/2
f 104/121/35 105/122/35 103/123/35
f 101/124/36 105/122/36 102/125/36
f 102/126/38 105/122/38 104/127/38
f 103/128/37 105/122/37 101/129/37
f 107/130/44 119/131/44 106/132/44
f 108/133/2 121/134/2 107/130/2
f 109/135/45 123/136/45 108/133/45
f 110/137/46 125/138/46 109/135/46
f 111/139/45 127/140/45 110/137/45
f 111/139/47 131/141/47 129/142/47
f 112/143/48 133/144/48 131/141/48
f 113/145/2 135/146/2 133/144/2
f 117/147/49 116/148/49 118/149/49
f 114/150/50 115/151/50 118/149/50
f 115/152/51 117/153/51 118/149/51
f 116/154/52 114/155/52 118/149/52
f 119/131/53 122/156/53 120/157/53
f 121/134/2 124/158/2 122/156/2
f 123/136/54 126/159/54 124/158/54
f 125/138/55 128/160/55 126/159/55
f 127/140/54 130/161/54 128/160/54
f 130/161/56 131/141/56 132/162/56
f 131/141/57 134/163/57 132/162/57
f 134/163/2 133/144/2 135/146/2
f 139/164/49 140/165/49 138/166/49
f 136/167/50 140/165/50 137/168/50
f 137/169/52 140/165/52 139/170/52
f 138/171/51 140/165/51 136/172/51
f 2/1/1 16/5/1 14/2/1
f 3/4/2 18/7/2 16/5/2
f 4/6/3 20/9/3 18/7/3
f 5/8/4 22/11/4 20/9/4
f 6/10/3 24/13/3 22/11/3
f 6/10/5 7/14/5 26/12/5
f 7/14/6 8/16/6 28/15/6
f 14/2/11 16/5/11 17/27/11
f 16/5/2 18/7/2 19/29/2
f 18/7/12 20/9/12 21/30/12
f 21/30/13 20/9/13 22/11/13
f 22/11/12 24/13/12 25/32/12
f 25/32/14 24/13/14 26/12/14
f 26/12/15 28/15/15 29/34/15
f 36/44/16 37/48/16 51/45/16
f 38/47/2 53/50/2 51/45/2
f 39/49/17 55/52/17 53/50/17
f 40/51/18 57/54/18 55/52/18
f 41/53/17 59/56/17 57/54/17
f 41/53/19 42/57/19 61/55/19
f 42/57/20 43/59/20 63/58/20
f 49/46/25 51/45/25 52/70/25
f 52/70/2 51/45/2 53/50/2
f 53/50/26 55/52/26 56/73/26
f 55/52/27 57/54/27 58/74/27
f 57/54/26 59/56/26 60/75/26
f 59/56/28 61/55/28 62/76/28
f 62/76/29 61/55/29 63/58/29
f 71/87/30 72/90/30 86/88/30
f 72/90/2 73/93/2 88/91/2
f 74/92/31 90/95/31 88/91/31
f 75/94/32 92/97/32 90/95/32
f 76/96/31 94/99/31 92/97/31
f 77/98/33 96/101/33 94/99/33
f 77/98/34 78/102/34 98/100/34
f 84/89/39 86/88/39 87/113/39
f 86/88/2 88/91/2 89/115/2
f 88/91/40 90/95/40 91/116/40
f 90/95/41 92/97/41 93/117/41
f 92/97/40 94/99/40 95/118/40
f 95/118/42 94/99/42 96/101/42
f 96/101/43 98/100/43 99/120/43
f 107/130/44 121/134/44 119/131/44
f 108/133/2 123/136/2 121/134/2
f 109/135/45 125/138/45 123/136/45
f 110/137/46 127/140/46 125/138/46
f 111/139/45 129/142/45 127/140/45
f 111/139/47 112/143/47 131/141/47
f 112/143/48 113/145/48 133/144/48
f 119/131/53 121/134/53 122/156/53
f 121/134/2 123/136/2 124/158/2
f 123/136/54 125/138/54 126/159/54
f 125/138/55 127/140/55 128/160/55
f 127/140/54 129/142/54 130/161/54
f 130/161/56 129/142/56 131/141/56
f 131/141/57 133/144/57 134/163/57
