# Blender v2.79 (sub 0) OBJ File: 'turretBoss.blend'
# www.blender.org
o ring_Circle.001
v -0.351974 0.000000 0.849740
v 0.351973 0.000000 0.849740
v -0.351974 0.100000 0.849740
v 0.351973 0.100000 0.849740
v -0.351974 0.200000 0.849740
v 0.351973 0.200000 0.849740
v -0.351974 0.300000 0.849740
v 0.351973 0.300000 0.849740
v -0.328344 0.100000 0.792692
v 0.328344 0.100000 0.792692
v -0.328344 0.200000 0.792692
v 0.328344 0.200000 0.792692
v 0.351974 0.000000 0.849740
v 0.849740 0.000000 0.351974
v 0.351974 0.100000 0.849740
v 0.849740 0.100000 0.351974
v 0.351974 0.200000 0.849740
v 0.849740 0.200000 0.351974
v 0.351974 0.300000 0.849740
v 0.849740 0.300000 0.351974
v 0.328344 0.100000 0.792692
v 0.792692 0.100000 0.328344
v 0.328344 0.200000 0.792692
v 0.792692 0.200000 0.328344
v 0.849740 0.000000 0.351974
v 0.849740 0.000000 -0.351973
v 0.849740 0.100000 0.351974
v 0.849740 0.100000 -0.351973
v 0.849740 0.200000 0.351974
v 0.849740 0.200000 -0.351973
v 0.849740 0.300000 0.351974
v 0.849740 0.300000 -0.351973
v 0.792692 0.100000 0.328344
v 0.792692 0.100000 -0.328344
v 0.792692 0.200000 0.328344
v 0.792692 0.200000 -0.328344
v 0.849740 0.000000 -0.351974
v 0.351974 0.000000 -0.849740
v 0.849740 0.100000 -0.351974
v 0.351974 0.100000 -0.849740
v 0.849740 0.200000 -0.351974
v 0.351974 0.200000 -0.849740
v 0.849740 0.300000 -0.351974
v 0.351974 0.300000 -0.849740
v 0.792692 0.100000 -0.328344
v 0.328344 0.100000 -0.792692
v 0.792692 0.200000 -0.328344
v 0.328344 0.200000 -0.792692
v 0.351974 0.000000 -0.849739
v -0.351973 0.000000 -0.849740
v 0.351974 0.100000 -0.849739
v -0.351973 0.100000 -0.849740
v 0.351974 0.200000 -0.849739
v -0.351973 0.200000 -0.849740
v 0.351974 0.300000 -0.849739
v -0.351973 0.300000 -0.849740
v 0.328344 0.100000 -0.792692
v -0.328344 0.100000 -0.792692
v 0.328344 0.200000 -0.792692
v -0.328344 0.200000 -0.792692
v -0.351974 0.000000 -0.849740
v -0.849740 0.000000 -0.351974
v -0.351974 0.100000 -0.849740
v -0.849740 0.100000 -0.351974
v -0.351974 0.200000 -0.849740
v -0.849740 0.200000 -0.351974
v -0.351974 0.300000 -0.849740
v -0.849740 0.300000 -0.351974
v -0.328344 0.100000 -0.792692
v -0.792692 0.100000 -0.328344
v -0.328344 0.200000 -0.792692
v -0.792692 0.200000 -0.328344
v -0.849739 0.000000 -0.351974
v -0.849740 0.000000 0.351973
v -0.849739 0.100000 -0.351974
v -0.849740 0.100000 0.351973
v -0.849739 0.200000 -0.351974
v -0.849740 0.200000 0.351973
v -0.849739 0.300000 -0.351974
v -0.849740 0.300000 0.351973
v -0.792692 0.100000 -0.328344
v -0.792692 0.100000 0.328344
v -0.792692 0.200000 -0.328344
v -0.792692 0.200000 0.328344
v -0.849740 0.000000 0.351974
v -0.351974 0.000000 0.849740
v -0.849740 0.100000 0.351974
v -0.351974 0.100000 0.849740
v -0.849740 0.200000 0.351974
v -0.351974 0.200000 0.849740
v -0.849740 0.300000 0.351974
v -0.351974 0.300000 0.849740
v -0.792692 0.100000 0.328344
v -0.328344 0.100000 0.792692
v -0.792692 0.200000 0.328344
v -0.328344 0.200000 0.792692
vt 0.968750 0.218750
vt 0.031250 0.343750
vt 0.031250 0.218750
vt -0.000000 0.125000
vt 0.000000 0.437500
vt 1.000000 0.562500
vt 0.000000 0.562500
vt 1.000000 0.125000
vt 0.000000 0.000000
vt 1.000000 -0.000000
vt 0.968750 0.343750
vt 0.968750 0.218750
vt 0.031250 0.343750
vt 0.031250 0.218750
vt -0.000000 0.125000
vt 0.000000 0.437500
vt 1.000000 0.562500
vt 0.000000 0.562500
vt 1.000000 0.125000
vt 0.000000 0.000000
vt 1.000000 -0.000000
vt 1.000000 0.437500
vt 0.968750 0.343750
vt 0.968750 0.218750
vt 0.031250 0.343750
vt 0.031250 0.218750
vt -0.000000 0.125000
vt 0.000000 0.437500
vt 1.000000 0.562500
vt 0.000000 0.562500
vt 1.000000 0.125000
vt 0.000000 0.000000
vt 1.000000 -0.000000
vt 0.968750 0.343750
vt 0.968750 0.218750
vt 0.031250 0.343750
vt 0.031250 0.218750
vt 1.000000 0.125000
vt -0.000000 0.125000
vt 0.000000 0.437500
vt 1.000000 0.562500
vt 0.000000 0.562500
vt 0.000000 0.000000
vt 1.000000 -0.000000
vt 1.000000 0.437500
vt 0.968750 0.343750
vt 0.968750 0.218750
vt 0.031250 0.343750
vt 0.031250 0.218750
vt -0.000000 0.125000
vt 0.000000 0.437500
vt 1.000000 0.562500
vt 0.000000 0.562500
vt 1.000000 0.125000
vt 0.000000 0.000000
vt 1.000000 -0.000000
vt 0.968750 0.343750
vt 0.968750 0.218750
vt 0.031250 0.343750
vt 0.031250 0.218750
vt 1.000000 0.125000
vt -0.000000 0.125000
vt 0.000000 0.437500
vt 1.000000 0.562500
vt 0.000000 0.562500
vt 0.000000 0.000000
vt 1.000000 -0.000000
vt 0.968750 0.343750
vt 0.968750 0.218750
vt 0.031250 0.343750
vt 0.031250 0.218750
vt -0.000000 0.125000
vt 0.000000 0.437500
vt 1.000000 0.562500
vt 0.000000 0.562500
vt 1.000000 0.125000
vt 0.000000 0.000000
vt 1.000000 -0.000000
vt 0.968750 0.343750
vt 0.968750 0.218750
vt 0.031250 0.343750
vt 0.031250 0.218750
vt 1.000000 0.125000
vt -0.000000 0.125000
vt 0.000000 0.437500
vt 1.000000 0.562500
vt 0.000000 0.562500
vt 0.000000 0.000000
vt 1.000000 -0.000000
vt 1.000000 0.437500
vt 0.968750 0.343750
vt 1.000000 0.437500
vt 1.000000 0.437500
vt 1.000000 0.437500
vt 1.000000 0.437500
vt 1.000000 0.437500
vn -0.0000 0.0000 1.0000
vn 0.0000 1.0000 0.0000
vn 0.0000 -1.0000 -0.0000
vn 0.7071 0.0000 0.7071
vn 1.0000 0.0000 0.0000
vn 0.7071 0.0000 -0.7071
vn 0.0000 0.0000 -1.0000
vn -0.7071 0.0000 -0.7071
vn -1.0000 0.0000 -0.0000
vn -0.7071 0.0000 0.7071
s off
f 10/1/1 11/2/1 9/3/1
f 3/4/2 10/1/2 9/3/2
f 5/5/1 8/6/1 7/7/1
f 4/8/1 1/9/1 2/10/1
f 12/11/3 5/5/3 11/2/3
f 22/12/4 23/13/4 21/14/4
f 15/15/2 22/12/2 21/14/2
f 17/16/4 20/17/4 19/18/4
f 16/19/4 13/20/4 14/21/4
f 18/22/3 23/13/3 24/23/3
f 34/24/5 35/25/5 33/26/5
f 27/27/2 34/24/2 33/26/2
f 29/28/5 32/29/5 31/30/5
f 28/31/5 25/32/5 26/33/5
f 36/34/3 29/28/3 35/25/3
f 46/35/6 47/36/6 45/37/6
f 40/38/2 45/37/2 39/39/2
f 41/40/6 44/41/6 43/42/6
f 40/38/6 37/43/6 38/44/6
f 42/45/3 47/36/3 48/46/3
f 58/47/7 59/48/7 57/49/7
f 51/50/2 58/47/2 57/49/2
f 53/51/7 56/52/7 55/53/7
f 52/54/7 49/55/7 50/56/7
f 60/57/3 53/51/3 59/48/3
f 70/58/8 71/59/8 69/60/8
f 64/61/2 69/60/2 63/62/2
f 65/63/8 68/64/8 67/65/8
f 64/61/8 61/66/8 62/67/8
f 72/68/3 65/63/3 71/59/3
f 82/69/9 83/70/9 81/71/9
f 75/72/2 82/69/2 81/71/2
f 77/73/9 80/74/9 79/75/9
f 76/76/9 73/77/9 74/78/9
f 84/79/3 77/73/3 83/70/3
f 94/80/10 95/81/10 93/82/10
f 88/83/2 93/82/2 87/84/2
f 89/85/10 92/86/10 91/87/10
f 88/83/10 85/88/10 86/89/10
f 90/90/3 95/81/3 96/91/3
f 10/1/1 12/11/1 11/2/1
f 3/4/2 4/8/2 10/1/2
f 5/5/1 6/92/1 8/6/1
f 4/8/1 3/4/1 1/9/1
f 12/11/3 6/92/3 5/5/3
f 22/12/4 24/23/4 23/13/4
f 15/15/2 16/19/2 22/12/2
f 17/16/4 18/22/4 20/17/4
f 16/19/4 15/15/4 13/20/4
f 18/22/3 17/16/3 23/13/3
f 34/24/5 36/34/5 35/25/5
f 27/27/2 28/31/2 34/24/2
f 29/28/5 30/93/5 32/29/5
f 28/31/5 27/27/5 25/32/5
f 36/34/3 30/93/3 29/28/3
f 46/35/6 48/46/6 47/36/6
f 40/38/2 46/35/2 45/37/2
f 41/40/6 42/45/6 44/41/6
f 40/38/6 39/39/6 37/43/6
f 42/45/3 41/40/3 47/36/3
f 58/47/7 60/57/7 59/48/7
f 51/50/2 52/54/2 58/47/2
f 53/51/7 54/94/7 56/52/7
f 52/54/7 51/50/7 49/55/7
f 60/57/3 54/94/3 53/51/3
f 70/58/8 72/68/8 71/59/8
f 64/61/2 70/58/2 69/60/2
f 65/63/8 66/95/8 68/64/8
f 64/61/8 63/62/8 61/66/8
f 72/68/3 66/95/3 65/63/3
f 82/69/9 84/79/9 83/70/9
f 75/72/2 76/76/2 82/69/2
f 77/73/9 78/96/9 80/74/9
f 76/76/9 75/72/9 73/77/9
f 84/79/3 78/96/3 77/73/3
f 94/80/10 96/91/10 95/81/10
f 88/83/2 94/80/2 93/82/2
f 89/85/10 90/90/10 92/86/10
f 88/83/10 87/84/10 85/88/10
f 90/90/3 89/85/3 95/81/3
